<?xml version="1.0" ?><!DOCTYPE svg  PUBLIC '-//W3C//DTD SVG 1.1//EN'  'http://www.w3.org/Graphics/SVG/1.1/DTD/svg11.dtd'><svg height="21.132px" id="Capa_1" style="enable-background:new 0 0 22.784 21.132;" version="1.1" viewBox="0 0 22.784 21.132" width="22.784px" xml:space="preserve" xmlns="http://www.w3.org/2000/svg" xmlns:xlink="http://www.w3.org/1999/xlink"><g><path d="   M6.296,0.5h10.196c0.772,0,1.404,0.632,1.404,1.404v2.808c0,0.772-0.632,1.404-1.404,1.404H6.296c-0.772,0-1.404-0.632-1.404-1.404   V1.904C4.892,1.132,5.523,0.5,6.296,0.5z" style="fill-rule:evenodd;clip-rule:evenodd;fill:none;stroke:#231F20;stroke-width:1.0001;stroke-miterlimit:2.6131;"/><path d="   M1.473,4.782h19.839c0.438,0,0.795,0.352,0.795,0.783v14.105c0,0.431-0.357,0.784-0.795,0.784H1.473   c-0.437,0-0.795-0.353-0.795-0.784V5.565C0.678,5.134,1.036,4.782,1.473,4.782z" style="fill-rule:evenodd;clip-rule:evenodd;fill:#FFFFFF;stroke:#231F20;stroke-width:1.3558;stroke-miterlimit:2.6131;"/></g><g/><g/><g/><g/><g/><g/><g/><g/><g/><g/><g/><g/><g/><g/><g/></svg>